<svg width="296" height="300" viewBox="0 0 296 300" fill="none" xmlns="http://www.w3.org/2000/svg">
<path fill-rule="evenodd" clip-rule="evenodd" d="M147.868 292.803C225.635 292.803 288.677 228.86 288.677 149.982C288.677 71.1036 225.635 7.16023 147.868 7.16023C70.1017 7.16023 7.05935 71.1036 7.05935 149.982C7.05935 228.86 70.1017 292.803 147.868 292.803ZM147.868 295.648C227.183 295.648 291.482 230.43 291.482 149.982C291.482 69.5323 227.183 4.31519 147.868 4.31519C68.5525 4.31519 4.25439 69.5323 4.25439 149.982C4.25439 230.43 68.5525 295.648 147.868 295.648Z" fill="#AEDDFF"/>
<path d="M214.874 31.2974C219.428 31.2974 223.12 27.5525 223.12 22.9329C223.12 18.3133 219.428 14.5684 214.874 14.5684C210.319 14.5684 206.627 18.3133 206.627 22.9329C206.627 27.5525 210.319 31.2974 214.874 31.2974Z" fill="#1697F6"/>
<path d="M80.8627 285.4C85.4172 285.4 89.1093 281.655 89.1093 277.036C89.1093 272.416 85.4172 268.671 80.8627 268.671C76.3081 268.671 72.616 272.416 72.616 277.036C72.616 281.655 76.3081 285.4 80.8627 285.4Z" fill="#1697F6"/>
<path d="M150.169 129.52L107.191 205.042L147.887 276.58L201.788 181.885L255.665 87.1897H174.248L150.169 129.52Z" fill="#1697F6"/>
<path d="M94.0094 181.885L96.8321 186.865L137.037 116.198L153.556 87.1897H147.886H40.1079L94.0094 181.885Z" fill="#AEDDFF"/>
<path d="M174.248 87.1897C194.621 155.192 147.887 276.58 147.887 276.58L107.191 205.042L174.248 87.1897Z" fill="#1867C0"/>
<path d="M153.557 87.1897C67.7217 87.1897 96.8324 186.865 96.8324 186.865L153.557 87.1897Z" fill="#7BC6FF"/>
</svg>
